<svg width="137" height="137" viewBox="0 0 137 137" fill="none" xmlns="http://www.w3.org/2000/svg">
<path d="M68.3852 136.725C77.7454 136.725 86.5207 134.96 94.7109 131.43C102.901 127.9 110.119 123.009 116.364 116.757C122.609 110.505 127.501 103.284 131.038 95.0936C134.575 86.9035 136.344 78.1352 136.344 68.7888C136.344 59.4424 134.575 50.6741 131.038 42.484C127.501 34.2939 122.606 27.0727 116.354 20.8205C110.101 14.5682 102.88 9.67715 94.6899 6.14722C86.4999 2.61715 77.7247 0.852112 68.3645 0.852112C59.019 0.852112 50.2509 2.61715 42.0603 6.14722C33.8698 9.67715 26.6555 14.5682 20.4175 20.8205C14.1796 27.0727 9.29196 34.2939 5.75463 42.484C2.21736 50.6741 0.44873 59.4424 0.44873 68.7888C0.44873 78.1352 2.21736 86.9035 5.75463 95.0936C9.29196 103.284 14.1831 110.505 20.4279 116.757C26.6728 123.009 33.8905 127.9 42.0811 131.43C50.2717 134.96 59.0397 136.725 68.3852 136.725ZM51.5462 101.182C49.4231 102.774 47.4628 102.966 45.6653 101.757C43.8678 100.549 43.4131 98.6046 44.3012 95.9254L50.9211 76.1747L33.9408 63.9231C32.7302 63.0056 32.0029 61.8666 31.7589 60.5063C31.5151 59.1459 31.7987 57.9317 32.6098 56.8637C33.421 55.7956 34.7874 55.288 36.709 55.3407L57.5869 55.6158L63.9279 35.6484C64.8023 33.0253 66.292 31.7138 68.3969 31.7138C70.5019 31.7138 71.9716 33.0253 72.8061 35.6484L79.2056 55.6158L100.082 55.3407C102.083 55.288 103.479 55.8056 104.27 56.8935C105.06 57.9814 105.314 59.2056 105.031 60.566C104.748 61.9263 104.003 63.0449 102.795 63.9218L85.8701 76.1163L92.4329 95.9254C93.3609 98.7215 92.9359 100.685 91.1579 101.815C89.3797 102.946 87.4092 102.735 85.2463 101.182L68.3852 88.8239L51.5462 101.182Z" fill="#32a852"/>
</svg>
